<svg width="130" height="130" viewBox="0 0 130 130" fill="none" xmlns="http://www.w3.org/2000/svg">
<g clip-path="url(#clip0_103_2146)">
<path d="M120.285 0H9.59035C4.28775 0 0 4.18626 0 9.362V120.514C0 125.689 4.28775 129.901 9.59035 129.901H120.285C125.588 129.901 129.901 125.689 129.901 120.539V9.362C129.901 4.18626 125.588 0 120.285 0ZM38.539 110.695H19.2568V48.6875H38.539V110.695ZM28.8979 40.2389C22.7073 40.2389 17.7092 35.2407 17.7092 29.0755C17.7092 22.9103 22.7073 17.9121 28.8979 17.9121C35.0631 17.9121 40.0613 22.9103 40.0613 29.0755C40.0613 35.2153 35.0631 40.2389 28.8979 40.2389ZM110.695 110.695H91.4381V80.5538C91.4381 73.3738 91.3112 64.1132 81.4165 64.1132C71.3948 64.1132 69.8725 71.953 69.8725 80.0464V110.695H50.6411V48.6875H69.1114V57.1615H69.3651C71.9276 52.2902 78.2197 47.1399 87.5817 47.1399C107.092 47.1399 110.695 59.9777 110.695 76.672V110.695Z" fill="white"/>
</g>
<defs>
<clipPath id="clip0_103_2146">
<rect width="129.901" height="129.901" fill="white"/>
</clipPath>
</defs>
</svg>
